<svg width="140" height="140" viewBox="0 0 140 140" fill="none" xmlns="http://www.w3.org/2000/svg">
<g id="&#229;&#155;&#190;&#230;&#160;&#135;/&#230;&#151;&#160;&#231;&#189;&#145;&#231;&#187;&#156;" clip-path="url(#clip0_11182_25823)">
<g id="&#231;&#188;&#186;&#231;&#156;&#129;">
<rect id="&#229;&#156;&#176;&#233;&#157;&#162;" opacity="0.4" y="106.75" width="140" height="33.25" fill="url(#paint0_radial_11182_25823)"/>
</g>
<g id="&#231;&#188;&#150;&#231;&#187;&#132;">
<circle id="&#230;&#164;&#173;&#229;&#156;&#134;&#229;&#189;&#162;" cx="70" cy="63.875" r="38.5" fill="#BFDEFF"/>
<path id="&#229;&#189;&#162;&#231;&#138;&#182;&#231;&#187;&#147;&#229;&#144;&#136;" fill-rule="evenodd" clip-rule="evenodd" d="M64.7504 90.1251C85.0468 90.1251 101.5 73.6716 101.5 53.3751C101.5 47.5681 100.153 42.0756 97.7551 37.1931C104.409 44.1133 108.5 53.5164 108.5 63.8751C108.5 85.1381 91.2633 102.375 70.0004 102.375C50.8398 102.375 34.9484 88.3782 31.9932 70.0515C38.0709 81.966 50.4578 90.1251 64.7504 90.1251Z" fill="#8DC4FF"/>
<path id="&#230;&#164;&#173;&#229;&#156;&#134;&#229;&#189;&#162;_2" fill-rule="evenodd" clip-rule="evenodd" d="M6.97369 79.013C3.73729 66.9346 29.4037 49.8386 64.2093 40.5124C99.0148 31.1863 129.791 33.1587 133.027 45.2371C136.263 57.3155 110.597 74.4115 75.7914 83.7376C40.9859 93.0637 10.2101 91.0914 6.97369 79.013ZM132.061 45.4959C129.044 34.2352 98.7464 32.2935 64.4681 41.4784C30.1898 50.6632 4.92232 67.4934 7.93962 78.7542C10.9569 90.0149 41.2543 91.9566 75.5326 82.7717C109.811 73.5869 135.078 56.7566 132.061 45.4959Z" fill="#409BFF"/>
<path id="Intersect" d="M65.9418 75.1507C84.9635 75.1507 98.5001 63.7452 98.5001 50C98.5001 46.3124 98.3619 42.4162 97.7923 38.6888C97.6149 37.5278 97.055 36.4587 96.1944 35.6594C89.3232 29.2775 80.1174 25.375 70.0001 25.375C49.8242 25.375 33.273 40.8947 31.6335 60.6472C31.5011 62.2427 32.1139 63.8155 33.3362 64.8494C40.9258 71.2693 53.7224 75.1507 65.9418 75.1507Z" fill="#BFDEFF"/>
<ellipse id="&#230;&#164;&#173;&#229;&#156;&#134;&#229;&#189;&#162;_3" cx="68.5306" cy="69.5686" rx="7" ry="6.125" transform="rotate(-24 68.5306 69.5686)" fill="#409BFF"/>
<ellipse id="&#230;&#164;&#173;&#229;&#156;&#134;&#229;&#189;&#162;&#229;&#164;&#135;&#228;&#187;&#189; 10" cx="61.0907" cy="34.5743" rx="7" ry="4.375" transform="rotate(-14 61.0907 34.5743)" fill="#409BFF"/>
<ellipse id="&#230;&#164;&#173;&#229;&#156;&#134;&#229;&#189;&#162;&#229;&#164;&#135;&#228;&#187;&#189; 6" cx="39.8378" cy="51.7362" rx="4.375" ry="2.625" transform="rotate(-63 39.8378 51.7362)" fill="#409BFF"/>
<ellipse id="&#230;&#164;&#173;&#229;&#156;&#134;&#229;&#189;&#162;&#229;&#164;&#135;&#228;&#187;&#189; 7" cx="83.5079" cy="34.5994" rx="2.625" ry="1.75" transform="rotate(19 83.5079 34.5994)" fill="#409BFF"/>
</g>
<g id="&#231;&#188;&#150;&#231;&#187;&#132; 3">
<rect id="&#231;&#159;&#169;&#229;&#189;&#162;" x="107.55" y="94" width="2.52" height="2.52" rx="1.26" fill="#BFDEFF"/>
<path id="&#231;&#159;&#169;&#229;&#189;&#162;_2" fill-rule="evenodd" clip-rule="evenodd" d="M106.1 96.0175C106.212 95.5723 106.612 95.26 107.071 95.26H110.549C111.008 95.26 111.408 95.5723 111.519 96.0175L114.799 109.137C114.957 109.769 114.48 110.38 113.829 110.38H103.791C103.14 110.38 102.663 109.769 102.82 109.137L106.1 96.0175Z" fill="#BFDEFF"/>
<path id="&#229;&#189;&#162;&#231;&#138;&#182;&#231;&#187;&#147;&#229;&#144;&#136;_2" fill-rule="evenodd" clip-rule="evenodd" d="M104.715 101.56L105.345 99.04H112.275L112.905 101.56H104.715ZM103.455 106.6L104.085 104.08H113.535L114.165 106.6H103.455Z" fill="white"/>
<path id="&#231;&#159;&#169;&#229;&#189;&#162;_3" fill-rule="evenodd" clip-rule="evenodd" d="M101.25 110.38C101.25 109.684 101.814 109.12 102.51 109.12H115.11C115.806 109.12 116.37 109.684 116.37 110.38C116.37 111.076 115.806 111.64 115.11 111.64H102.51C101.814 111.64 101.25 111.076 101.25 110.38Z" fill="#409BFF"/>
</g>
<g id="&#231;&#188;&#150;&#231;&#187;&#132; 4">
<path id="&#231;&#159;&#169;&#229;&#189;&#162;_4" fill-rule="evenodd" clip-rule="evenodd" d="M29.7779 106.604C29.6666 106.158 29.2666 105.846 28.8077 105.846H27.2923C26.8335 105.846 26.4335 106.158 26.3222 106.604L25.2837 110.758C25.126 111.389 25.6033 112 26.2539 112H29.8462C30.4967 112 30.9741 111.389 30.8163 110.758L29.7779 106.604Z" fill="#409BFF"/>
<path id="&#230;&#164;&#173;&#229;&#156;&#134;&#229;&#189;&#162;_4" d="M25.4017 102.857C25.4017 106.89 28.6383 110.159 32.6308 110.159C36.5 110.5 43.7708 107.198 38.4999 104C38.4999 99.9671 35.2633 96.6979 31.2708 96.6979C27.9996 92.5 25.4017 98.8244 25.4017 102.857Z" fill="#BFDEFF"/>
<ellipse id="&#230;&#164;&#173;&#229;&#156;&#134;&#229;&#189;&#162;&#229;&#164;&#135;&#228;&#187;&#189; 11" cx="4.61538" cy="8.46154" rx="4.61538" ry="8.46154" transform="matrix(-0.707107 0.707107 0.707107 0.707107 30.8721 92.7532)" fill="#007AFF"/>
<path id="&#231;&#159;&#169;&#229;&#189;&#162;_5" fill-rule="evenodd" clip-rule="evenodd" d="M40.8441 96.7786C41.037 96.5611 41.0329 96.2325 40.8346 96.0199C40.6363 95.8072 40.3088 95.7802 40.0783 95.9574L33.1288 101.301C32.4748 101.804 32.3958 102.761 32.9584 103.364C33.5211 103.968 34.481 103.956 35.0283 103.338L40.8441 96.7786Z" fill="#BFDEFF"/>
</g>
<g id="&#230;&#176;&#148;&#230;&#179;&#161;">
<circle id="&#230;&#164;&#173;&#229;&#156;&#134;&#229;&#189;&#162;_5" cx="31.5" cy="29.75" r="3.5" fill="#409BFF"/>
<circle id="&#230;&#164;&#173;&#229;&#156;&#134;&#229;&#189;&#162;&#229;&#164;&#135;&#228;&#187;&#189;" cx="87.5" cy="5.25" r="5.25" fill="#E6F2FF"/>
<circle id="&#230;&#164;&#173;&#229;&#156;&#134;&#229;&#189;&#162;&#229;&#164;&#135;&#228;&#187;&#189; 3" cx="5.25" cy="52.5" r="5.25" fill="#E6F2FF"/>
<circle id="&#230;&#164;&#173;&#229;&#156;&#134;&#229;&#189;&#162;&#229;&#164;&#135;&#228;&#187;&#189; 2" cx="133" cy="47.25" r="3.5" fill="#007AFF"/>
<circle id="&#230;&#164;&#173;&#229;&#156;&#134;&#229;&#189;&#162;&#229;&#164;&#135;&#228;&#187;&#189; 5" cx="120.75" cy="84" r="5.25" fill="#409BFF"/>
</g>
</g>
<defs>
<radialGradient id="paint0_radial_11182_25823" cx="0" cy="0" r="1" gradientUnits="userSpaceOnUse" gradientTransform="translate(70 107) rotate(90) scale(30.7456 70)">
<stop stop-color="#007AFF"/>
<stop offset="1" stop-color="white" stop-opacity="0"/>
</radialGradient>
<clipPath id="clip0_11182_25823">
<rect width="140" height="140" fill="white"/>
</clipPath>
</defs>
</svg>
